Vichitra Sodarulu (1989) Telugu Movie Torrent - teluguppls


For screenshots see the link below
 
http://teluguppls.blogspot.com/2011/04/vichitra-sodarulu-1989-dvdrip.html


Description


General

Format                           : MPEG-4
Codec ID                         : isom
File size                        : 699 MiB
Duration                         : 2h 17mn
Overall bit rate                 : 711 Kbps

Video

Format                           : AVC
Format settings, ReFrames        : 5 frames
Codec ID                         : avc1
Codec ID/Info                    : Advanced Video Coding
Duration                         : 2h 17mn
Bit rate mode                    : Variable
Bit rate                         : 642 Kbps
Maximum bit rate                 : 3 360 Kbps
Width                            : 544 pixels
Height                           : 416 pixels
Display aspect ratio             : 4:3
Color space                      : YUV
Chroma subsampling               : 4:2:0
Bit depth                        : 8 bits
Stream size                      : 632 MiB (90%)
Writing library                  : x264 core 59 r839M 27c3071


Audio

Format                           : AAC
Format/Info                      : Advanced Audio Codec
Duration                         : 2h 17mn
Bit rate mode                    : Variable
Bit rate                         : 66.15 Kbps
Maximum bit rate                 : 77.5 Kbps
Channel(s)                       : 2 channels
Channel positions                : Front: L R
Sampling rate                    : 48.0 KHz / 24.0 KHz
Compression mode                 : Lossy
Stream size                      : 64.4 MiB (9%)



Post a comment........................